<?xml version="1.0" encoding="utf-8"?>
<!-- Generator: Adobe Illustrator 24.1.2, SVG Export Plug-In . SVG Version: 6.00 Build 0)  -->
<svg version="1.1" id="Ebene_1" xmlns="http://www.w3.org/2000/svg" xmlns:xlink="http://www.w3.org/1999/xlink" x="0px" y="0px"
	 viewBox="0 0 524 605" style="enable-background:new 0 0 524 605;" xml:space="preserve">
<style type="text/css">
	.st0{fill:#404040;}
	.st1{fill:url(#SVGID_1_);}
	.st2{fill:url(#SVGID_2_);}
</style>
<g>
	<path class="st0" d="M63.5,440.7c0-18.5,14.1-32.1,31.9-32.1c11.6,0,19.6,4.5,25,12.1l-7.5,5.3c-4.1-5.6-9.5-8.6-17.8-8.6
		c-12.4,0-21.4,9.9-21.4,23.2c0,13.5,9.2,23.2,21.8,23.2c8.1,0,14.1-3,18.8-9.1l7.6,5.2c-6.4,8.6-14.6,12.8-26.8,12.8
		C77.3,472.8,63.5,459.2,63.5,440.7z"/>
	<path class="st0" d="M130.7,440.7c0-18.5,14.4-32.1,32.3-32.1c17.9,0,32.3,13.6,32.3,32.1s-14.4,32.1-32.3,32.1
		C145.1,472.8,130.7,459.2,130.7,440.7z M185.1,440.7c0-13.2-9.1-23.2-22.1-23.2c-13,0-22.1,9.9-22.1,23.2s9.1,23.2,22.1,23.2
		C176,463.9,185.1,454,185.1,440.7z"/>
	<path class="st0" d="M219.4,472h-9.8v-62.6h20.1c14.6,0,23,8,23,19.9c0,8.7-4.3,15-12.1,17.8l15.1,24.8h-10.8l-14-23.1h-1.2h-10.2
		V472z M229.2,440.4c9.3,0,13.2-3.7,13.2-11.1c0-7.5-4-11.1-13.2-11.1h-9.8v22.3H229.2z"/>
	<path class="st0" d="M265.2,440.7c0-18.5,14.4-32.1,32.3-32.1c17.9,0,32.3,13.6,32.3,32.1s-14.4,32.1-32.3,32.1
		C279.6,472.8,265.2,459.2,265.2,440.7z M319.6,440.7c0-13.2-9.1-23.2-22.1-23.2c-13,0-22.1,9.9-22.1,23.2s9.1,23.2,22.1,23.2
		C310.5,463.9,319.6,454,319.6,440.7z"/>
	<path class="st0" d="M353.1,430.9V472h-9.2v-63.5h0.7l40.1,42v-41.1h9.2v63.5h-0.7L353.1,430.9z"/>
	<path class="st0" d="M443.8,460.3h-25.4l-4.9,11.7h-9.9l27.4-63.8h0.6L459,472h-10.4L443.8,460.3z M422,451.7h18.2l-9-21.9
		L422,451.7z"/>
</g>
<g>
	<path class="st0" d="M112.3,503.1h6.3l8.2,24.3l10.8-25.1h0.3l10.8,25.1l8-24.3h5.9l-13.3,38.6H149l-11.3-26.5l-11.5,26.5h-0.3
		L112.3,503.1z"/>
	<path class="st0" d="M187.3,534.1h-15.5l-3,7.1h-6l16.7-38.9h0.3l16.7,38.9h-6.3L187.3,534.1z M174,528.8h11.1l-5.5-13.3L174,528.8
		z"/>
	<path class="st0" d="M210.7,541.2h-6v-38.1h12.2c8.9,0,14,4.9,14,12.1c0,5.3-2.6,9.1-7.4,10.9l9.2,15.1h-6.6l-8.5-14.1h-0.7h-6.2
		V541.2z M216.7,522c5.7,0,8-2.2,8-6.8c0-4.6-2.4-6.8-8-6.8h-6V522H216.7z"/>
	<path class="st0" d="M247.7,516.2v25h-5.6v-38.6h0.4l24.4,25.6v-25h5.6v38.6h-0.4L247.7,516.2z"/>
	<path class="st0" d="M284.9,520.9h10.3v5.1h-10.3V520.9z"/>
	<path class="st0" d="M326.4,534.1h-15.5l-3,7.1h-6l16.7-38.9h0.3l16.7,38.9h-6.3L326.4,534.1z M313.1,528.8h11.1l-5.5-13.3
		L313.1,528.8z"/>
	<path class="st0" d="M349.8,541.2h-6v-38.1h12.1c8.9,0,14,4.9,14,12.3c0,7.6-5.2,12.3-14,12.3h-6.1V541.2z M355.7,522.4
		c5.7,0,8-2.4,8-7c0-4.7-2.4-7-8-7h-5.9v14H355.7z"/>
	<path class="st0" d="M385.2,541.2h-6v-38.1h12.1c8.9,0,14,4.9,14,12.3c0,7.6-5.2,12.3-14,12.3h-6.1V541.2z M391,522.4
		c5.7,0,8-2.4,8-7c0-4.7-2.4-7-8-7h-5.9v14H391z"/>
</g>
<g>
	<linearGradient id="SVGID_1_" gradientUnits="userSpaceOnUse" x1="244.8356" y1="69.967" x2="244.8356" y2="298.6935">
		<stop  offset="0.5" style="stop-color:#59112B"/>
		<stop  offset="1" style="stop-color:#BC1200"/>
	</linearGradient>
	<path class="st1" d="M269.4,251.7v24.7l1.2,1.2l0.5-0.4c3.6,2,6.1,5.9,6.1,10.3c0,6.5-5.3,11.8-11.8,11.8
		c-6.5,0-11.8-5.3-11.8-11.8c0-5.1,3.3-9.5,7.8-11.1v-22.7l1.2-0.8l-1.2-1.2c-10-0.8-19.2-4.8-26.4-11l-17.5,17.5
		c2.1,4.4,1.3,9.8-2.3,13.4c-4.6,4.6-12,4.6-16.6,0c-4.6-4.6-4.6-12,0-16.6c3.6-3.6,9-4.4,13.4-2.3l17.5-17.5
		c-5.8-6.8-9.6-15.3-10.8-24.6l1-0.6l-1.2-1.2h-24.7c-1.6,4.6-6,7.8-11.1,7.8c-6.5,0-11.8-5.3-11.8-11.8s5.3-11.8,11.8-11.8
		c5.1,0,9.5,3.3,11.1,7.8l1.2,1.2l1.2-1.2h22.3c0.8-10,4.8-19.2,11-26.4L212.1,157c-4.4,2.1-9.8,1.3-13.4-2.3
		c-4.6-4.6-4.6-12,0-16.6c4.6-4.6,12-4.6,16.6,0c3.6,3.6,4.4,9,2.3,13.4l17.5,17.5c7.3-6.1,16.4-10.1,26.4-11v-23l1.2-0.5l-1.2-1.2
		c-4.6-1.6-7.8-6-7.8-11.1c0-6.5,5.3-11.8,11.8-11.8c6.5,0,11.8,5.3,11.8,11.8c0,5.1-3.3,9.5-7.8,11.1V158l1.2,1.2l1-1
		c10.5,1.4,20,6.2,27.1,13.4l66.5-66.5c-25.5-25.5-60.8-41.3-99.8-41.3c-77.9,0-141.1,63.2-141.1,141.1S187.6,346,265.5,346
		c39,0,74.2-15.8,99.8-41.3l-66.5-66.5C291.1,245.8,280.8,250.8,269.4,251.7z"/>
	<linearGradient id="SVGID_2_" gradientUnits="userSpaceOnUse" x1="246.0638" y1="347.2221" x2="246.0638" y2="64.9857">
		<stop  offset="0" style="stop-color:#BC1200"/>
		<stop  offset="0.67" style="stop-color:#80CDEC"/>
		<stop  offset="1" style="stop-color:#BDE0F9"/>
	</linearGradient>
	<path class="st2" d="M270.6,253v24.7c4.6,1.6,7.8,6,7.8,11.1c0,6.5-5.3,11.8-11.8,11.8c-6.5,0-11.8-5.3-11.8-11.8
		c0-5.1,3.3-9.5,7.8-11.1V253c-10-0.8-19.2-4.8-26.4-11l-17.5,17.5c2.1,4.4,1.3,9.8-2.3,13.4c-4.6,4.6-12,4.6-16.6,0
		c-4.6-4.6-4.6-12,0-16.6c3.6-3.6,9-4.4,13.4-2.3l17.5-17.5c-6.1-7.3-10.1-16.4-11-26.4h-24.7c-1.6,4.6-6,7.8-11.1,7.8
		c-6.5,0-11.8-5.3-11.8-11.8c0-6.5,5.3-11.8,11.8-11.8c5.1,0,9.5,3.3,11.1,7.8h24.7c0.8-10,4.8-19.2,11-26.4l-17.5-17.5
		c-4.4,2.1-9.8,1.3-13.4-2.3c-4.6-4.6-4.6-12,0-16.6c4.6-4.6,12-4.6,16.6,0c3.6,3.6,4.4,9,2.3,13.4l17.5,17.5
		c7.3-6.1,16.4-10.1,26.4-11v-24.7c-4.6-1.6-7.8-6-7.8-11.1c0-6.5,5.3-11.8,11.8-11.8c6.5,0,11.8,5.3,11.8,11.8
		c0,5.1-3.3,9.5-7.8,11.1v24.7c11.4,0.9,21.7,6,29.3,13.6l66.5-66.5C341,80.8,305.7,65,266.7,65c-77.9,0-141.1,63.2-141.1,141.1
		s63.2,141.1,141.1,141.1c39,0,74.2-15.8,99.8-41.3L300,239.4C292.3,247,282.1,252,270.6,253z"/>
</g>
</svg>
