<?xml version="1.0" encoding="utf-8"?>
<!-- Generator: Adobe Illustrator 25.2.2, SVG Export Plug-In . SVG Version: 6.00 Build 0)  -->
<svg version="1.1" id="Ebene_1" xmlns="http://www.w3.org/2000/svg" xmlns:xlink="http://www.w3.org/1999/xlink" x="0px" y="0px"
	 viewBox="0 0 280 230" style="enable-background:new 0 0 280 230;" xml:space="preserve">
<style type="text/css">
	.st0{fill:#D41030;}
	.st1{fill:#F3F3F8;}
	.st2{fill:#E7E7F1;}
	.st3{fill:#D0D0E4;}
	.st4{fill:#333333;}
	.st5{fill:#CC9F7A;}
	.st6{fill:#303178;}
	.st7{fill:#151678;}
	.st8{fill:#C6C2BC;}
	.st9{fill:#EFEBE3;}
	.st10{fill:#FFFFFF;}
	.st11{fill:#43D26B;}
	.st12{fill:#1C9026;}
	.st13{fill:#28AA4D;}
</style>
<g>
	<g>
		<path class="st0" d="M232.1,60c-2.4-12.7-8.5-23-46.8-33c-41.2-10.8-60.7-15-91.6,4.3s-49.4-2.9-70.4,29s-2.3,71.3,27.9,75
			c30.2,3.8,35.3,2.6,46,10.9s31.9,19.6,77,6.2S237.5,88.6,232.1,60z"/>
		<path class="st1" d="M109.3,33.1c-8.8-2-63.1-32.4-63.1,31.7c0,75.7,57.9,60,100.5,76.5s66.2,31.3,91.2,28.4
			c24.9-2.9,34.2-22.5,23-59.1C249.7,74,288.3,50.3,233,24.9c-38.6-17.8-63,6.5-86.3,8.5S118.1,35,109.3,33.1z"/>
		<path class="st2" d="M237.6,84.2h-1.1c0.5,0,0.9-0.4,0.9-0.9s-0.4-0.9-0.9-0.9H226c-0.5,0-0.9,0.4-0.9,0.9s0.4,0.9,0.9,0.9h1.1
			c-0.5,0-0.9,0.4-0.9,0.9s0.4,0.9,0.9,0.9h-3.2c-0.5,0-0.9,0.4-0.9,0.9s0.4,0.9,0.9,0.9h10.5c0.5,0,0.9-0.4,0.9-0.9
			s-0.4-0.9-0.9-0.9h3.2c0.5,0,0.9-0.4,0.9-0.9C238.4,84.6,238.1,84.2,237.6,84.2z"/>
		<path class="st2" d="M103.6,71.2l31.6-9c0,0,5.2-0.9,5,0.6c-0.2,1.5-0.6,2.3-4.5,3.7s-25.4,7.6-25.4,7.6c-3.6,1-7.4,1.3-11.1,1
			C93.1,74.7,103.6,71.2,103.6,71.2z"/>
		<path class="st3" d="M93.7,68l2.5-0.5l7.3,3.7l-6,2.7L93.7,68z"/>
		<path class="st3" d="M112,71.4c0,0-1.3,1.6-0.8,1.4c0.6-0.2,8.2-2.8,8.5-2.9c0.4-0.1-0.2-0.2-0.2-0.2L112,71.4z"/>
		<path class="st3" d="M139.9,62.3c-1.2,0.3-4.1,0.9-4.4,1c-0.2,0-0.6-1-0.1-1.1c1-0.2,2-0.2,3-0.2C139.6,62,139.9,62.3,139.9,62.3z
			"/>
		<path class="st3" d="M125.2,65.7L125.2,65.7c-0.2,0-0.2,0.1-0.2,0.1l0.1,0.5c0,0.1,0.1,0.1,0.1,0.1h0.1c0.1,0,0.1-0.1,0.1-0.1
			L125.2,65.7C125.3,65.7,125.3,65.7,125.2,65.7z"/>
		<path class="st3" d="M126.2,65.4L126.2,65.4c-0.2,0-0.2,0.1-0.2,0.1l0.1,0.5c0,0.1,0.1,0.1,0.1,0.1h0.1c0.1,0,0.1-0.1,0.1-0.1
			L126.2,65.4C126.4,65.4,126.3,65.4,126.2,65.4z"/>
		<path class="st3" d="M127.3,65.1L127.3,65.1c-0.2,0-0.2,0.1-0.2,0.1l0.1,0.5c0,0.1,0.1,0.1,0.1,0.1h0.1c0.1,0,0.1-0.1,0.1-0.1
			L127.3,65.1C127.4,65.1,127.3,65.1,127.3,65.1z"/>
		<path class="st3" d="M128.4,64.8L128.4,64.8c-0.2,0-0.2,0.1-0.2,0.1l0.1,0.5c0,0.1,0.1,0.1,0.1,0.1h0.1c0.1,0,0.1-0.1,0.1-0.1
			L128.4,64.8C128.5,64.8,128.4,64.8,128.4,64.8z"/>
		<path class="st3" d="M113.5,69L113.5,69c-0.2,0-0.2,0.1-0.2,0.1l0.1,0.5c0,0.1,0.1,0.1,0.1,0.1h0.1c0.1,0,0.1-0.1,0.1-0.1
			L113.5,69C113.6,69.1,113.6,69,113.5,69z"/>
		<path class="st3" d="M114.6,68.7L114.6,68.7c-0.2,0-0.2,0.1-0.2,0.1l0.1,0.5c0,0.1,0.1,0.1,0.1,0.1h0.1c0.1,0,0.1-0.1,0.1-0.1
			L114.6,68.7C114.7,68.8,114.6,68.7,114.6,68.7z"/>
		<path class="st3" d="M115.6,68.4L115.6,68.4c-0.2,0-0.2,0.1-0.2,0.1l0.1,0.5c0,0.1,0.1,0.1,0.1,0.1h0.1c0.1,0,0.1-0.1,0.1-0.1
			L115.6,68.4C115.7,68.5,115.7,68.4,115.6,68.4z"/>
		<path class="st3" d="M116.7,68.1L116.7,68.1c-0.2,0-0.2,0.1-0.2,0.1l0.1,0.5c0,0.1,0.1,0.1,0.1,0.1h0.1c0.1,0,0.1-0.1,0.1-0.1
			L116.7,68.1C116.8,68.1,116.8,68.1,116.7,68.1z"/>
		<path class="st2" d="M123.3,48.1h-1.1c0.5,0,0.9-0.4,0.9-0.9s-0.4-0.9-0.9-0.9h-10.5c-0.5,0-0.9,0.4-0.9,0.9s0.4,0.9,0.9,0.9h1.1
			c-0.5,0-0.9,0.4-0.9,0.9s0.4,0.8,0.8,0.9l0,0h-3.2c-0.5,0-0.9,0.4-0.9,0.9s0.4,0.9,0.9,0.9H120c0.5,0,0.9-0.4,0.9-0.9
			s-0.4-0.9-0.9-0.9h-0.1l0,0h3.3c0.5,0,0.9-0.4,0.9-0.9C124.2,48.5,123.8,48.1,123.3,48.1z"/>
		<path class="st2" d="M223.3,39.5h-1.1l0,0c0.5,0,0.9-0.4,0.9-0.9s-0.4-0.9-0.9-0.9h-10.5c-0.5,0-0.9,0.4-0.9,0.9s0.4,0.9,0.9,0.9
			h1.1c-0.5,0-0.9,0.4-0.9,0.9s0.4,0.9,0.9,0.9h-3.2c-0.5,0-0.9,0.4-0.9,0.9s0.4,0.9,0.9,0.9h10.5c0.5,0,0.9-0.4,0.9-0.9
			s-0.4-0.9-0.9-0.9l0,0h3.2c0.5,0,0.9-0.4,0.9-0.9C224.1,39.9,223.8,39.5,223.3,39.5z"/>
		<path class="st1" d="M145.9,212.2c40.3,0,72.9-4.5,72.9-10s-32.7-10-72.9-10c-40.3,0-72.9,4.5-72.9,10S105.6,212.2,145.9,212.2z"
			/>
		<path class="st2" d="M244.2,56.2h19.2l-0.1-1.3h-19.1v-24c0,0-1.1-0.7-2-1.2l-2.4-1.4v26.6h-35.3V18.4c0,0-1.1,0-2,0.1
			c-1,0-2.4,0.1-2.4,0.1v36.3h-51.2V33.2l-2,0.2c-0.9,0.1-2.4,0.2-2.4,0.2v21.3H95.2V28.3L90.8,27v28h-44l-0.1,1.2h44.1v23.1H47.1
			l0.2,1.3h43.5v23.1H54.4l0.7,1.3h35.6v23.5l4.4,1.1V105h49.4v35.7l4.4,1.6V105h51.2v58.3l4.4,1.5V105h35.3v64.5
			c0,0,0.9-0.1,2.4-0.4c0.7-0.1,1.3-0.3,2-0.5V105h15.2l-0.2-1.3h-15V80.6h16l0.2-1.3h-16.2V56.2L244.2,56.2z M239.8,56.2v23.1
			h-35.3V56.2H239.8z M200.1,56.2v23.1h-51.2V56.2H200.1z M95.2,56.2h49.4v23.1H95.2V56.2z M95.2,103.7V80.6h49.4v23.1
			C144.6,103.7,95.2,103.7,95.2,103.7z M148.9,103.7V80.6h51.2v23.1C200.1,103.7,148.9,103.7,148.9,103.7z M239.8,103.7h-35.3V80.6
			h35.3V103.7z"/>
	</g>
	<g>
		<path class="st4" d="M180.7,199.4c1.6,0,2.8-1.3,2.8-2.8s-1.3-2.8-2.8-2.8c-1.6,0-2.8,1.3-2.8,2.8S179.1,199.4,180.7,199.4z"/>
		<path class="st4" d="M196.8,199.4c1.5,0,2.7-1.2,2.7-2.7s-1.2-2.7-2.7-2.7s-2.7,1.2-2.7,2.7S195.3,199.4,196.8,199.4z"/>
		<path d="M196.8,198.8c1.1,0,2.1-0.9,2.1-2.1s-0.9-2.1-2.1-2.1c-1.1,0-2.1,0.9-2.1,2.1S195.7,198.8,196.8,198.8z"/>
		<path d="M180.7,198.8c1.1,0,2.1-0.9,2.1-2.1s-0.9-2.1-2.1-2.1c-1.1,0-2.1,0.9-2.1,2.1S179.6,198.8,180.7,198.8z"/>
		<path class="st4" d="M199.9,157.3h-7.3v-33.8v-1.4c0-0.2,0-0.4-0.1-0.6s-0.2-0.4-0.4-0.5c-1-0.8-2.2-1.3-3.6-1.3
			c-1.3,0-2.6,0.4-3.6,1.2c-0.2,0.1-0.3,0.3-0.4,0.5c-0.1,0.2-0.1,0.4-0.1,0.6v1.7v33.6h-0.7c-1.5,0-2.9,0.6-3.9,1.6
			s-1.6,2.4-1.6,3.9v31.9c0,0.3,0.1,0.5,0.3,0.7s0.4,0.3,0.7,0.3h26.5c0.3,0,0.5-0.1,0.7-0.3s0.3-0.4,0.3-0.7v-30.6
			c0-1.8-0.7-3.5-2-4.8C203.4,158.1,201.7,157.3,199.9,157.3z M185.4,122.8V122c0-0.1,0-0.2,0-0.2c0-0.1,0.1-0.1,0.1-0.2
			c0.8-0.6,1.8-1,2.9-1c1.1,0,2.2,0.4,3,1.1c0.1,0,0.1,0.1,0.1,0.2s0,0.1,0,0.2v0.7v34.5h-6.2L185.4,122.8L185.4,122.8z"/>
		<path class="st4" d="M190.3,200.4c1.7,0,3-1.3,3-3s-1.3-3-3-3s-3,1.3-3,3C187.3,199,188.6,200.4,190.3,200.4z"/>
		<path class="st4" d="M206.9,198.8c1.6,0,2.9-1.3,2.9-2.9s-1.3-2.9-2.9-2.9c-1.6,0-2.9,1.3-2.9,2.9S205.3,198.8,206.9,198.8z"/>
		<path d="M206.9,198.1c1.2,0,2.2-1,2.2-2.2s-1-2.2-2.2-2.2s-2.2,1-2.2,2.2S205.7,198.1,206.9,198.1z"/>
		<path d="M190.3,199.7c1.3,0,2.3-1,2.3-2.3s-1-2.3-2.3-2.3s-2.3,1-2.3,2.3C188,198.6,189,199.7,190.3,199.7z"/>
	</g>
	<g>
		<path class="st5" d="M147.1,61.5c-3.2,0-6.3,1-6.5,4.1v4.1l-1.5,2.3l1.5,2.4v13h8.3v-5.3c2.3,0,4.2-1.9,4.2-4.6V66.8
			C153.1,63.6,150.5,61.5,147.1,61.5z"/>
		<path d="M142.9,74c-0.5,0-1-0.2-1.4-0.6s-0.6-0.9-0.6-1.4s0.2-1,0.6-1.4c0.4-0.4,0.9-0.6,1.4-0.6v1c-0.3,0-0.5,0.1-0.7,0.3
			c-0.2,0.2-0.3,0.4-0.3,0.7s0.1,0.5,0.3,0.7s0.4,0.3,0.7,0.3V74z"/>
		<path d="M143.9,69.6c0,0-3.5-1.1-3.5,2.5c0,1.7,0.9,1.4,1.3,2.3c0.4,0.9,0,3.7-1.7,4.1c-2.6,0.5-3.6-5.7-3.6-8.7
			c0-1.8-0.1-3.1,1.5-5.3c1.1-1.5,2.9-4.4,6-4.3c7.8,0.3,8.7,2.7,9.5,3.9c0.8,1.2,0.9,5.1-0.3,6.8v-2.5h-9.2V69.6z"/>
		<path class="st5" d="M184.2,111.8l4.8,3.9c0.6,0.5,1,1.2,1.1,2s-0.1,1.6-0.6,2.2s-1.2,1-2,1.1s-1.6-0.1-2.2-0.6l-4.8-3.9
			c-0.3-0.2-0.4-0.5-0.5-0.9c0-0.3,0.1-0.7,0.3-1l2.1-2.6c0.1-0.1,0.2-0.2,0.4-0.3c0.2-0.1,0.3-0.1,0.5-0.2c0.2,0,0.3,0,0.5,0
			C183.9,111.7,184,111.7,184.2,111.8z"/>
		<path class="st6" d="M135.2,140.4l-5.7,23.4l-10.1,28.6l5.7,3.3l12.3-24.8l8.7-18c0,0-2.1-8.3-6.1-9
			C135.8,143.2,135.2,140.4,135.2,140.4z"/>
		<path class="st7" d="M156.5,133.9c0,0,0.8,4.5-4.2,11.3l6.6,16.8c0.4,0.9,0.6,1.9,0.6,2.9s0,2.6-0.2,4.6
			c-0.4,4.3-5.3,30.3-5.3,30.3l-6.4-0.9l2.4-27.1c0.3-3-0.4-6-1.8-8.6l-11.5-20.7c0,0,3.5,2,5.3-1.3c0.3-0.6,0.5-1.2,0.5-1.9
			s-0.3-1.3-0.7-1.8c-0.3-0.5-1.5-2.3-1.5-2.3L156.5,133.9z"/>
		<path class="st4" d="M119.5,193.4l-1.7,4.5c0,0.1,0,0.1,0,0.2c0,0.1,0,0.1,0,0.2c0,0.1,0.1,0.1,0.1,0.2c0,0,0.1,0.1,0.2,0.1
			l10.9,3.9c0.2,0.1,1.7,0.5,1.9,0.1c0.3-0.6-0.5-1.3-0.9-1.6c-1.3-1.1-5.6-4.1-5.6-4.1c-0.1-0.1-0.2-0.2-0.2-0.3l-0.1-0.3
			c0-0.1,0-0.1-0.1-0.2c0-0.1-0.1-0.1-0.2-0.1L119.5,193.4z"/>
		<path class="st4" d="M147.7,199.5l-0.1,5.3c0,0.1,0,0.1,0,0.2c0,0.1,0.1,0.1,0.1,0.2c0,0.1,0.1,0.1,0.2,0.1c0.1,0,0.1,0,0.2,0
			l10.4,0.1c0.4,0,4.1,0.2,4.3-0.7c0.2-0.8-0.2-0.9-0.4-1c-2-0.7-8.3-2.5-8.3-2.5c-0.1,0-0.2-0.1-0.3-0.2l-0.3-0.4L147.7,199.5z"/>
		<path class="st8" d="M156,88.6l-2.7-2.1c0.7,0.1,4.5,1.6,6.5,3.2l24.1,20.3c1.6,1.1,0.4,2.8-0.5,4.3c-1,1.5-3.3,4.3-5.2,2.7
			l-22.1-17.1L156,88.6L156,88.6z"/>
		<path class="st9" d="M154.9,135.5c-2.6,0.5-4.1,0.7-8.6,0.7c-4.9-0.1-7.6-0.8-7.6-0.8c-1.5,0-2.9-0.7-4-1.7c-1-1.1-1.6-2.5-1.6-4
			V91.3c0-1.5,0.5-3,1.6-4c1-1.1,2.5-1.7,4-1.7l2.1,0.1c0,0,1,1.4,4.4,1.4c3.3-0.1,3.9-0.9,3.9-0.9l2.5,0.1c1.5,0,2.9,0.7,4,1.7
			c1,1.1,1.6,2.5,1.6,4l0.6,39.3C157.6,134.5,157.5,135,154.9,135.5z"/>
		<path class="st5" d="M137.8,132.2l3.4,5.2c0.4,0.7,0.6,1.5,0.4,2.2c-0.2,0.8-0.6,1.4-1.3,1.9c-0.7,0.4-1.5,0.6-2.2,0.4
			c-0.8-0.2-1.4-0.6-1.9-1.3l-3.4-5.2c-0.2-0.3-0.3-0.6-0.2-1c0.1-0.3,0.3-0.6,0.6-0.8l2.8-1.8c0.3-0.2,0.7-0.3,1-0.2
			S137.6,131.9,137.8,132.2z"/>
		<path class="st9" d="M133.9,88.2l5,16.7l-7.5,10.3c-0.2,0.3-0.3,0.6-0.4,1c0,0.3,0,0.7,0.2,1l6.8,14.1c0.4,1-0.6,1.9-2.1,2.8
			c-1.7,1.1-3.6,2.1-4.4,1.2l-11-18c-0.4-0.7-0.6-1.4-0.5-2.2c0.1-0.8,0.4-1.5,0.9-2.1L133.9,88.2z"/>
		<path d="M141.7,57.1l-0.9-0.7c-1.6-1.2-3.8-1-5.1,0.6l-0.7,0.9c-1.2,1.6-1,3.8,0.6,5l0.9,0.7c1.6,1.2,3.8,1,5.1-0.6l0.7-0.9
			C143.5,60.6,143.2,58.3,141.7,57.1z"/>
		<path class="st10" d="M147.8,74.1l-3.8-5.3l-0.8,0.6l4,5.5c-0.2,2-1.1,2.9-1.7,3.3l-3.9-4.5l-0.8,0.7l4.1,4.7l0,0
			c1.5,3.3,4.1,3,4.1,3c2.3,0,4.2-1.9,4.2-4.6V74L147.8,74.1L147.8,74.1z"/>
	</g>
	<g>
		<g>
			<path d="M64.2,158.5c9.8,0,17.8-0.7,17.8-1.6c0-0.9-8-1.6-17.8-1.6s-17.8,0.7-17.8,1.6S54.4,158.5,64.2,158.5z"/>
			<path class="st4" d="M64.2,191.7c9.8,0,17.8-1.2,17.8-2.8c0-1.5-8-2.8-17.8-2.8s-17.8,1.2-17.8,2.8
				C46.4,190.4,54.4,191.7,64.2,191.7z"/>
			<g>
				<path class="st11" d="M58.3,108.1c0.1,2.4,0,4.7-0.2,7.1c0,0.4-2.2,16.1-2.3,16.4l3.1,5.6c0,0,0.5-18.8,0.5-19.5
					C59.3,115,59.2,108.8,58.3,108.1z"/>
				<path class="st12" d="M48.9,100c1.3,4.9,3.2,9.7,5.7,14.1c4.2,7.6,3.2,17.9,3.2,17.9l1.6,12.7c0,0,1.9-18.7,1.5-20.9
					c-0.4-2.2-2.2-8.3-5.6-13.3C51.6,105.1,48.9,100,48.9,100z"/>
				<path class="st11" d="M70.5,119.3c-2,14.3,1.1,38.7,1.1,38.7c-0.1,0.9,3.8,0.5,4.5,0.5c1,0.1-2-3-1.5-7.7
					c0.2-2.8-0.5-5.9-0.7-9.1c-0.4-8-1.3-16.2-1.4-19.1c-0.1-2.6,2.5-14.8,3-17.1c0,0-0.1-0.1-0.1,0
					C74.5,107.1,71.1,114.7,70.5,119.3z"/>
				<path class="st12" d="M75,132.9C75,132.8,75,132.8,75,132.9c0-0.1-0.1-0.2-0.1-0.2h-0.1c0,0-0.1,0-0.1,0.1
					c-0.7,0.9-2.3,3.2-2.8,4c-0.6,1-4.6,21.7-3.9,22c0.7,0.2,4.7,0,4.7,0s-0.6-14.3,0.5-18.5C74,137.1,74.8,134,75,132.9z"/>
				<path class="st13" d="M47.9,113.6c0.7,1.2,1.4,2.4,2,3.6c0.5,1.2,3,7.8,3.2,8.2c0.1,0.4,0.9,33.5,0.9,33.5s5.1,0.7,6.1,0.5
					s-0.8-23.6-0.8-23.6s-5.5-15-8.2-18.7C48.4,113.7,47.5,112.7,47.9,113.6z"/>
				<path class="st11" d="M63.1,100l-4.5,46.1c-0.2,2.4-0.3,4.9-0.1,7.3l0.2,2.1c-0.1,0.9-0.3,4.3,0.6,4.5c0,0,5.6,0.4,5.7-0.5
					c0,0,1.1-7.5,1.5-12.2c0.8-9.6-1-24.8-1.2-28.9C65.1,113.6,63.1,100,63.1,100z"/>
				<path class="st13" d="M67.4,107.5c0,0-0.3,8.2-0.2,12.1s-3.3,28.7-3.3,28.7c-0.2,2.4-0.2,11.1-0.2,11.1
					c-0.1,0.9,8.5-0.8,8.5-0.8c-0.5-3-0.7-6.1-0.5-9.2c0.2-2.8-0.3-5.8-0.5-9c-0.4-8-1.2-16.3-1.3-19.2c-0.1-2.8-1.2-9.3-1.4-13.8
					C68.4,105.4,67.5,104.4,67.4,107.5z"/>
			</g>
			<path class="st4" d="M64.2,158.5c-9.8,0-17.8-0.7-17.8-1.6v32H82v-32C82,157.8,74,158.5,64.2,158.5z"/>
		</g>
	</g>
</g>
</svg>
