<?xml version="1.0" encoding="utf-8"?>
<!-- Generator: Adobe Illustrator 25.2.2, SVG Export Plug-In . SVG Version: 6.00 Build 0)  -->
<svg version="1.1" id="Ebene_1" xmlns="http://www.w3.org/2000/svg" xmlns:xlink="http://www.w3.org/1999/xlink" x="0px" y="0px"
	 viewBox="0 0 280 230" style="enable-background:new 0 0 280 230;" xml:space="preserve">
<style type="text/css">
	.st0{fill:none;}
	.st1{fill:#D41030;}
	.st2{fill:#F3F3F8;}
	.st3{fill:#A80D26;}
	.st4{fill:#AD1F3A;}
	.st5{fill:#C1365B;}
	.st6{fill:#FFFFFF;}
	.st7{fill:#D0D0E4;}
	.st8{fill:none;stroke:#D0D0E4;stroke-width:2;stroke-miterlimit:10;}
	.st9{fill:#F1DFDC;}
	.st10{fill:#303178;}
	.st11{fill:#151678;}
	.st12{fill:#333333;}
	.st13{fill:#EFEBE3;}
	.st14{fill:#CC9F7A;}
	.st15{fill:#4B1800;}
</style>
<g>
	<rect x="5" y="38" class="st0" width="270" height="154"/>
	<path class="st1" d="M275,119.5c0,38.4-83,54.7-151.5,54.7C54.9,174.2,5,147.5,5,109.2C5,72,52.9,18.1,97.4,45.6
		c2.4,1.5,4.6,3.3,6.6,5.4C156.6,105.4,263.1,12.9,275,119.5z"/>
	<g>
		<path class="st2" d="M133,60.9c2.6,0,5,1,6.8,2.8s2.8,4.3,2.8,6.8v119.2h-19.3V70.5c0-1.3,0.2-2.5,0.7-3.7
			c0.5-1.2,1.2-2.2,2.1-3.1c0.9-0.9,2-1.6,3.1-2.1C130.5,61.2,131.7,60.9,133,60.9z"/>
		<path class="st3" d="M123.2,175.9h19.6c0.5,0,1,0.2,1.3,0.6c0.4,0.4,0.6,0.8,0.6,1.3v10.3c0,0.4-0.2,0.8-0.5,1.1s-0.7,0.5-1.1,0.5
			h-20.3c-0.4,0-0.8-0.2-1.1-0.5s-0.5-0.7-0.5-1.1v-10.3c0-0.2,0-0.5,0.1-0.7s0.2-0.4,0.4-0.6c0.2-0.2,0.4-0.3,0.6-0.4
			C122.7,176,122.9,175.9,123.2,175.9L123.2,175.9z"/>
		<path class="st4" d="M125.8,176h14.4c0.4,0,0.8,0.2,1.2,0.5c0.3,0.3,0.5,0.7,0.5,1.2v10.6c0,0.4-0.1,0.7-0.4,1
			c-0.3,0.3-0.6,0.4-1,0.4h-15c-0.4,0-0.7-0.1-1-0.4c-0.3-0.3-0.4-0.6-0.4-1v-10.6c0-0.2,0-0.4,0.1-0.6c0.1-0.2,0.2-0.4,0.4-0.5
			c0.2-0.2,0.3-0.3,0.5-0.4C125.4,176.1,125.6,176,125.8,176z"/>
		<path class="st5" d="M131,176h0.2c0.1,0,0.2,0,0.3,0.1s0.1,0.2,0.1,0.3v12.9v0.1c0,0,0,0.1-0.1,0.1s-0.1,0.1-0.1,0.1h-0.1H131
			c-0.1,0-0.2,0-0.2-0.1c-0.1-0.1-0.1-0.1-0.1-0.2v-12.9c0-0.1,0-0.2,0.1-0.3C130.8,176.1,130.9,176,131,176L131,176z"/>
		<path class="st5" d="M134.9,176h0.2c0.1,0,0.2,0,0.3,0.1s0.1,0.2,0.1,0.3v12.9c0,0.1,0,0.2-0.1,0.2c-0.1,0.1-0.1,0.1-0.2,0.1h-0.3
			c-0.1,0-0.2,0-0.2-0.1c-0.1-0.1-0.1-0.1-0.1-0.2v-12.9c0-0.1,0-0.2,0.1-0.3C134.7,176.1,134.8,176,134.9,176L134.9,176z"/>
		<path class="st5" d="M138.8,176h0.2c0.1,0,0.2,0,0.3,0.1s0.1,0.2,0.1,0.3v12.9c0,0.1,0,0.2-0.1,0.2c-0.1,0.1-0.1,0.1-0.2,0.1h-0.3
			c-0.1,0-0.2,0-0.2-0.1c-0.1-0.1-0.1-0.1-0.1-0.2v-12.9c0-0.1,0-0.2,0.1-0.3C138.6,176.1,138.7,176,138.8,176z"/>
		<path class="st5" d="M127.1,176h0.2h0.1c0,0,0.1,0,0.1,0.1l0.1,0.1v0.1v12.9c0,0.1,0,0.2-0.1,0.2c-0.1,0.1-0.1,0.1-0.2,0.1H127
			c-0.1,0-0.2,0-0.2-0.1c-0.1-0.1-0.1-0.1-0.1-0.2v-12.9c0-0.1,0-0.2,0.1-0.3C126.9,176.1,127,176,127.1,176z"/>
		<path class="st6" d="M139.4,83.9h-12.8v80.5h12.8V83.9z"/>
		<path class="st7" d="M134.8,110.1h-3.6v48.1h3.6V110.1z"/>
		<path class="st8" d="M134.6,100.3h-3.2v3.2h3.2V100.3z"/>
		<path class="st8" d="M134.6,92.3h-3.2v3.2h3.2V92.3z"/>
	</g>
	<g>
		<path class="st9" d="M117.7,92.8l2.1,0.5L97,183.4c-0.1,0.3-0.3,0.5-0.5,0.7c-0.3,0.2-0.6,0.2-0.9,0.1c-0.3-0.1-0.5-0.2-0.7-0.5
			c-0.1-0.2-0.2-0.5-0.1-0.8L117.7,92.8z"/>
		<path class="st6" d="M121.4,83.2l-0.3-0.1c-1.4-0.4-2.9,0.5-3.3,1.9l-2.6,10.1c-0.4,1.4,0.5,2.9,1.9,3.3l0.3,0.1
			c1.4,0.4,2.9-0.5,3.3-1.9l2.6-10.1C123.7,85,122.9,83.5,121.4,83.2z"/>
	</g>
	<g>
		<g>
			<path class="st10" d="M163.5,121.1l-5.4,18.4c-0.9,3.2-0.4,6.6,1.4,9.4l19.3,28.9l-4.2,3.8l-26.1-30.1c-1.9-2.2-2.9-5.1-2.7-8
				l1.5-25L163.5,121.1z"/>
			<path class="st11" d="M156.4,120.9l2,12.7l3.1,19.4c0.1,0.9,0.2,1.8,0.2,2.7v25l6.4,0.9l3.2-22.1c0.2-1.1,0.2-2.1,0.3-3.2l1.2-37
				L156.4,120.9z"/>
			<path class="st12" d="M162,181.4l-0.5,4.2c-0.1,1,0,2,0.3,3c0.3,0.8,0.9,1.6,1.3,1.9c0.6,0.4,2.2,0.7,3.2,0.4
				c0.8-0.2,1.1-2.6,1.1-3.5c0-0.4,0-0.8,0-1.1l0.2-4L162,181.4z"/>
			<path class="st12" d="M179.2,178.3l2.9,3.3c0.4,0.5,0.3,1.2-0.2,1.6c0,0-5.4,4.6-7.4,5.8c-0.6,0.3-2.1,0.9-2.6,0.4
				c-0.2-0.1-0.9-0.6-0.8-1.5c0.1-0.3,0.3-0.7,0.6-1.2c0.4-0.6,3.4-4.7,3.4-4.7L179.2,178.3z"/>
		</g>
		<path class="st13" d="M173.4,77.4l-1.8,7.2c0,0,2.7,11.4,2,11.5l-5.7-1.9c-1,0.3-2,1-2.5,2.7c-0.5,1.9,0.6,4,1.8,4.1
			c0,0,3.3,5.6,5.1,6.1c3,0.8,11.4-1.8,10.5-4.5C173.3,76.5,173.4,77.4,173.4,77.4z"/>
		<path class="st14" d="M161.5,49.6h-0.3c-0.3,0-0.6,0-0.8,0c-0.3,0-0.5,0-0.8,0h-0.3c-3.2,0-5,2.2-5,5.4v7.9c0,2,0.9,4.1,2.1,5.1
			v6.7v0.1h0.3h7.4h0.3V75v-6.7c1.2-1,2.1-3.4,2.1-5.3v-8C166.5,51.8,164.7,49.6,161.5,49.6z"/>
		<path class="st13" d="M160.4,74.4c3.5-0.1,3.9-0.9,3.9-0.9l3.6,0.1c3.2,0,5.9,2.4,5.9,5.5l0.5,18.4l-0.7,19.8
			c0,3.1-0.2,3.6-2.9,4.1s-4.4,0.7-9.1,0.6H159c-4.7,0-6.4-0.2-9.1-0.7c-2.7-0.5-2.9-1-2.9-4.1l1.4-16.3l-3.8-20.2
			c0.6-3.3,3.2-4.7,6.4-5.5l5.5-1.8C156.4,73.5,156.8,74.3,160.4,74.4"/>
		<path class="st6" d="M166.9,62l-1.7,3.3v-3.1l1.7-2.2l-0.1-0.8l-2,2.6H156l-2-2.8l-0.1,0.8l1.7,2.3v3.2l-1.7-3.4v1.3l2.2,4.2
			l0.1,0.2l0.2,0.3c0.4,0.6,0.9,1.1,1.5,1.5c0.6,0.4,1.3,0.6,2,0.6c0.2,0,0.3,0,0.5,0s0.3,0,0.5,0c0.9-0.1,1.7-0.4,2.4-0.9
			s1.2-1.2,1.6-2l2-3.9V62z"/>
		<path class="st13" d="M144.7,80.2c0,0-3.6,17.1-3.5,22.2c0,1.6-0.1,4.7,5.7,3c3.1-0.9,6-2.7,5.8-5.5c-0.1-1-2.6-18.7-2.6-18.7
			L144.7,80.2z"/>
		<path d="M176.8,87.8l-13.4-2.7l-4.4,22.3l13.4,2.7L176.8,87.8z"/>
		<path class="st7" d="M166.4,105.5l-5.7-2c-0.7-0.2-1.3-0.8-1.6-1.5s-0.4-1.5-0.1-2.2c0.2-0.7,0.8-1.3,1.5-1.6
			c0.7-0.3,1.5-0.4,2.2-0.1l5.7,2c0.3,0.1,0.6,0.3,0.7,0.6c0.1,0.3,0.2,0.7,0.1,1l-1,3c-0.1,0.3-0.3,0.6-0.6,0.7
			C167.1,105.6,166.7,105.6,166.4,105.5L166.4,105.5z"/>
		<path class="st13" d="M172.7,101.3l-5.7-1.9c-1,0.3-2,1-2.5,2.7c-0.5,1.9,0.6,4,1.8,4.1c0,0,9.8,2.4,11.7,2.9c3,0.8,5.9-4.5,4.5-7
			c-1.3-2.5-0.1-0.4-3.7-6.9l-2.7,6.7L172.7,101.3z"/>
		<path class="st7" d="M151.3,95.6l3.7-3.7c0.5-0.5,1.1-0.7,1.7-0.7c0.7,0,1.3,0.3,1.7,0.7c0.4,0.4,0.7,1.1,0.7,1.7
			c0,0.7-0.3,1.3-0.7,1.7l-3.6,3.6c-0.2,0.2-0.5,0.3-0.8,0.3s-0.6-0.1-0.8-0.3l-1.9-1.9c-0.2-0.2-0.3-0.5-0.3-0.8
			C151,96.1,151.1,95.8,151.3,95.6z"/>
		<path class="st15" d="M150.2,56.1c0-0.9-0.2-3,1.1-3.4c1.3-0.3-0.1-2.3,0.5-3.3c0.3-0.5,0.8-0.9,1.3-1.1c0.6-0.2,1.2-0.3,1.8-0.2
			c1.3,0.2,0.5-3.1,2.1-3.1s2.7,0.7,3.5,0.3c0.8-0.3,2.4-1,3.4,0.9c1,1.9,1.4-0.4,2.6,0.5c1.1,0.8,0.6,2.5,2.1,3.1s1.6,1,1.7,4.1
			c0.1,1.2,0.7,2.8-0.9,4c-0.5,0.4-1.8,0.6-1.9,1.7c-0.1,1.1-1,0.3-1.3-0.9s0.2-0.7,0.2-1.7c-0.1-1,0.2-2.5-2.1-2.6
			c-2.4-0.1-1.2-1.7-2.7-1.8c-1.5-0.2-2.4,0.8-3.3,0.6c-0.9-0.2-0.8,1.1-1.4,1.4c-0.6,0.3-1.9,0-2,2.2c0,1.1-0.1,2.1-0.4,3.1
			c0,0.1-0.1,0.1-0.2,0.2c-0.1,0-0.2,0.1-0.2,0c-0.1,0-0.2-0.1-0.2-0.1c-0.1-0.1-0.1-0.1-0.1-0.2c0-0.2,0-0.3-0.1-0.5
			c-0.2-0.8-1.1-0.7-1.4-0.3C151.9,59.5,150.2,58.2,150.2,56.1z"/>
	</g>
</g>
</svg>
