<?xml version="1.0" encoding="utf-8"?>
<!-- Generator: Adobe Illustrator 25.2.2, SVG Export Plug-In . SVG Version: 6.00 Build 0)  -->
<svg version="1.1" id="Ebene_1" xmlns="http://www.w3.org/2000/svg" xmlns:xlink="http://www.w3.org/1999/xlink" x="0px" y="0px"
	 viewBox="0 0 280 230" style="enable-background:new 0 0 280 230;" xml:space="preserve">
<style type="text/css">
	.st0{fill:none;}
	.st1{fill:#D41030;}
	.st2{fill:#F3F3F8;}
	.st3{fill:#D0D0E4;}
	.st4{fill:#303178;}
	.st5{fill:#151678;}
	.st6{fill:#CC9F7A;}
	.st7{fill:#333333;}
	.st8{fill:#C6C2BC;}
	.st9{fill:#EFEBE3;}
	.st10{fill:#FFFFFF;}
</style>
<g>
	<rect x="5" y="38" class="st0" width="270" height="154"/>
	<path class="st1" d="M275,119.5c0,38.4-83,54.7-151.5,54.7C54.9,174.2,5,147.5,5,109.2C5,72,52.9,18.1,97.4,45.6
		c2.4,1.5,4.6,3.3,6.6,5.4C156.6,105.4,263.1,12.9,275,119.5z"/>
	<g>
		<path class="st2" d="M159,95.2H54.8c-1.2,0-2.2,1-2.2,2.2v8.5c0,1.2,1,2.2,2.2,2.2H56v46.1c0,4,3.3,7.3,7.3,7.3h87.2
			c4,0,7.3-3.3,7.3-7.3v-46.1h1.2c1.2,0,2.2-1,2.2-2.2v-8.5C161.2,96.2,160.2,95.2,159,95.2z M75.6,147.6c0,3-2.4,5.4-5.4,5.4
			s-5.4-2.4-5.4-5.4v-27.2c0-3,2.4-5.4,5.4-5.4s5.4,2.4,5.4,5.4V147.6z M90.3,147.6c0,3-2.4,5.4-5.4,5.4s-5.4-2.4-5.4-5.4v-27.2
			c0-3,2.4-5.4,5.4-5.4s5.4,2.4,5.4,5.4V147.6z M105,147.6c0,3-2.4,5.4-5.4,5.4s-5.4-2.4-5.4-5.4v-27.2c0-3,2.4-5.4,5.4-5.4
			s5.4,2.4,5.4,5.4V147.6z M119.6,147.6c0,3-2.4,5.4-5.4,5.4s-5.4-2.4-5.4-5.4v-27.2c0-3,2.4-5.4,5.4-5.4s5.4,2.4,5.4,5.4V147.6z
			 M134.3,147.6c0,3-2.4,5.4-5.4,5.4s-5.4-2.4-5.4-5.4v-27.2c0-3,2.4-5.4,5.4-5.4s5.4,2.4,5.4,5.4V147.6z M148.9,147.6
			c0,3-2.4,5.4-5.4,5.4s-5.4-2.4-5.4-5.4v-27.2c0-3,2.4-5.4,5.4-5.4s5.4,2.4,5.4,5.4V147.6z"/>
		<path class="st3" d="M159,108.1H54.8c-1.2,0-2.2-1-2.2-2.2v-8.5c0-1.2,1-2.2,2.2-2.2h8.5l28.3-35c1-1.3,2.5-2,4.1-2
			c1.2,0,2.4,0.4,3.3,1.2c1.1,0.9,1.8,2.2,1.9,3.6c0.2,1.4-0.3,2.8-1.1,3.9L76.9,95.2h59.7l-22.9-28.4c-0.9-1.1-1.3-2.5-1.1-3.9
			s0.8-2.7,1.9-3.6c0.9-0.8,2.1-1.2,3.3-1.2c1.6,0,3.1,0.7,4.1,2l28.3,35.1h8.8c1.2,0,2.2,1,2.2,2.2v8.5
			C161.2,107.1,160.2,108.1,159,108.1L159,108.1z"/>
	</g>
	<g>
		<path class="st4" d="M181.5,121.9l-5.4,18.4c-0.9,3.2-0.4,6.6,1.4,9.4l19.3,28.9l-4.2,3.8l-26.1-30.1c-1.9-2.2-2.9-5.1-2.7-8
			l1.5-25L181.5,121.9z"/>
		<path class="st5" d="M174.4,121.7l2,12.7l3.1,19.4c0.1,0.9,0.2,1.8,0.2,2.7v25l6.4,0.9l3.2-22.1c0.2-1.1,0.2-2.1,0.3-3.2l1.2-37
			L174.4,121.7z"/>
		<path class="st6" d="M177.5,49.3h-0.1h-0.2c-0.3,0-0.6,0-0.8,0.1c-0.3,0-0.5,0-0.8,0h-0.2h-0.1c-3.2,0.1-4.9,2.4-4.9,5.6l0.2,8
			c0.1,2,0.7,4.2,2,5.2l0.2,6.8h0.6l7.5-0.2h0.3h0.3l-0.2-6.8c1.2-1,1.7-3.3,1.7-5.3l-0.2-8C182.6,51.4,180.7,49.2,177.5,49.3z"/>
		<path class="st7" d="M180,182.2l-0.5,4.2c-0.1,1,0,2,0.3,3c0.3,0.8,0.9,1.6,1.3,1.9c0.6,0.4,2.2,0.7,3.2,0.4
			c0.8-0.2,1.1-2.6,1.1-3.5c0-0.4,0-0.8,0-1.1l0.2-4L180,182.2z"/>
		<path class="st7" d="M197.2,179.1l2.9,3.3c0.4,0.5,0.3,1.2-0.2,1.6c0,0-5.4,4.6-7.4,5.8c-0.6,0.3-2.1,0.9-2.6,0.4
			c-0.2-0.1-0.9-0.6-0.8-1.5c0.1-0.3,0.3-0.7,0.6-1.2c0.4-0.6,3.4-4.7,3.4-4.7L197.2,179.1z"/>
		<path class="st8" d="M169,73.9c-0.6,0.1-7.3,3.7-11,5.8c-1.6,0.9-3.1,2-4.4,3.2c-3.3,3.1-8.2,8-9.4,9.1c-1.2,1.2-0.9,1.8-0.5,2
			l3.7,2.5c0.3,0.1,0.6,0.1,0.9,0c0.7-0.2,6.2-5,8.7-7.2c0.8-0.7,1.7-1.2,2.8-1.5l9.1-2.8L169,73.9z"/>
		<path class="st9" d="M177.1,74.3c1.8-0.1,2.8-0.4,3.5-0.6c0.7-0.3,1.5-0.4,2.3-0.4h0.9c1.4,0.1,3,0.5,4.1,1.5s1.8,2.5,1.9,4
			l1.9,18.1c0,0.2,0,0.5,0,0.7l-0.2,19.6c0.1,3.1-0.1,3.6-2.8,4.2s-4.4,0.8-9.1,0.9l-2.6,0.1c-4.7,0.1-6.4,0-9.1-0.4
			c-2.6-0.4-2.9-1-3-3.8c0-0.2,0-0.4,0-0.6l0.9-15.8c0-0.2,0-0.5,0-0.7l-1.3-21.6c0-0.8,0.1-1.5,0.4-2.2c0-0.1,0-0.1,0.1-0.2
			c0.5-1.2,1.5-2.2,2.6-2.8c0.1-0.1,0.3-0.1,0.4-0.2c0.7-0.3,1.4-0.4,2.2-0.5l1-0.1c0.8-0.1,1.6,0.1,2.3,0.3
			C174.2,74.1,175.3,74.3,177.1,74.3"/>
		<path class="st6" d="M192.5,110.2l-4.5,4.1c-0.6,0.5-1.3,0.8-2.1,0.8s-1.5-0.4-2-0.9c-0.5-0.6-0.8-1.3-0.7-2.1
			c0-0.8,0.4-1.5,0.9-2l4.5-4.1c0.3-0.2,0.6-0.4,0.9-0.3c0.3,0,0.7,0.2,0.9,0.4l2.1,2.4c0.2,0.3,0.3,0.6,0.3,0.9
			S192.7,110,192.5,110.2L192.5,110.2z"/>
		<path class="st9" d="M188.2,75.2L182.6,86l14.5,8.1c0.5,0.2,0.3,0.8,0.1,1c-2.4,2.5-8.7,9.5-8.7,9.5c-0.5,1.1,0.1,1.9,1.3,3.2
			c1.1,1.2,2.3,2.3,3.2,2.4c0.4,0,0.7-0.2,0.9-0.5c0,0,9.1-9.4,11.4-13.1c0.9-1.5,1.2-3.3,0.1-4.3L188.2,75.2z"/>
		<path class="st10" d="M182.7,61.8l-1.5,3.1l-0.1-3l1.5-2.2l-0.1-0.7l-1.7,2.5l-8.3,0.3l-1.9-2.4l-0.1,0.8l1.6,2.1l0.1,2.9
			l-1.7-3.1l0.1,1.2l2.3,4.4c0.4,0.6,0.9,1,1.5,1.3s1.2,0.5,1.9,0.5h0.5h0.5c0.8-0.1,1.6-0.4,2.2-0.9s1.1-1.2,1.4-1.9l1.8-3.7V61.8z
			"/>
		<path class="st6" d="M145.4,100.6c-0.3,0.6-0.8,1-1.4,1.2c-0.6,0.2-1.3,0.1-1.9-0.2s-1-0.8-1.2-1.5c-0.2-0.6-0.1-1.3,0.2-1.9
			c0,0,1.7-3.1,2.2-4.3c0.3-0.6,1.2-0.8,1.6-0.7c0.7,0.1,1.9,0.8,2.4,1.3c0.9,0.9,0.5,1.5,0.5,1.5L145.4,100.6z"/>
		<path d="M184.2,49.2c-2.1-2.9-4.9-3.9-4.9-3.9c0.3-0.5,0.6-1,0.7-1.6s0-1.2-0.2-1.7l-0.3-1c-0.1-0.4-0.3-0.8-0.6-1.1
			c-0.3-0.3-0.6-0.6-1-0.8c-0.4-0.2-0.8-0.3-1.2-0.3s-0.9,0-1.3,0.2l-0.9,0.4c-0.8,0.3-1.5,1-1.8,1.8s-0.4,1.7-0.1,2.6l0.3,1
			c0.1,0.3,0.2,0.6,0.4,0.8c0,0-2.9,1.2-4.8,4.3c-0.7,1.1-1.3,3.4-1.2,5.1c0.1,2.8,3.5,10.6,3.5,8.2c0.1-3.4,0.3-4.4,0.2-6.1
			c0-0.4,0-0.9,0.1-1.3c0.1-0.4,0.3-0.8,0.6-1.2c0.3-0.3,0.6-0.6,1-0.8c0.4-0.2,0.8-0.3,1.3-0.4l4.9-0.1c0.4,0,0.9,0.1,1.3,0.3
			c0.4,0.2,0.8,0.4,1.1,0.8c0.3,0.3,0.5,0.7,0.7,1.1s0.2,0.9,0.2,1.3c0,1.7,0.4,2.9,0.5,6.1c-0.2,2.5,3.1-5.5,3-8.3
			C185.7,52.5,185,50.3,184.2,49.2z"/>
	</g>
</g>
</svg>
