<?xml version="1.0" encoding="utf-8"?>
<!-- Generator: Adobe Illustrator 25.2.2, SVG Export Plug-In . SVG Version: 6.00 Build 0)  -->
<svg version="1.1" id="Ebene_1" xmlns="http://www.w3.org/2000/svg" xmlns:xlink="http://www.w3.org/1999/xlink" x="0px" y="0px"
	 viewBox="0 0 280 230" style="enable-background:new 0 0 280 230;" xml:space="preserve">
<style type="text/css">
	.st0{fill:none;}
	.st1{fill:#D41030;}
	.st2{fill:#F3F3F8;}
	.st3{fill:#D0D0E4;}
	.st4{fill:#303178;}
	.st5{fill:#151678;}
	.st6{fill:#CC9F7A;}
	.st7{fill:#333333;}
	.st8{fill:#C6C2BC;}
	.st9{fill:#EFEBE3;}
	.st10{fill:#FFFFFF;}
</style>
<g>
	<rect x="5" y="38.1" class="st0" width="270" height="153.2"/>
	<path class="st1" d="M275,119.6c0,38.4-83,54.7-151.5,54.7C54.9,174.3,5,147.6,5,109.3c0-37.2,47.9-91.1,92.4-63.6
		c2.4,1.5,4.6,3.3,6.6,5.4C156.6,105.5,263.1,13,275,119.6z"/>
	<g>
		<path class="st2" d="M116,186.7c25.8,0,46.7-21,46.7-46.9S141.8,92.9,116,92.9s-46.7,21-46.7,46.9
			C69.4,165.7,90.2,186.7,116,186.7z"/>
		<path class="st3" d="M116.4,190.6c-27.7,0-50.2-22.7-50.2-50.6s22.5-50.6,50.2-50.6s50.2,22.7,50.2,50.6S144.1,190.6,116.4,190.6z
			 M116.4,95.4c-24.4,0-44.3,20-44.3,44.7c0,24.6,19.9,44.7,44.3,44.7s44.3-20,44.3-44.7C160.7,115.4,140.8,95.4,116.4,95.4
			L116.4,95.4z"/>
		<path class="st3" d="M111.9,159.7l-20.7-20.8c-0.5-0.5-0.9-1.2-0.9-2s0.3-1.5,0.8-2l0.1-0.1l4.1-4.2c0.3-0.3,0.6-0.5,1-0.6
			c0.4-0.1,0.7-0.2,1.1-0.2s0.8,0.1,1.1,0.2c0.4,0.1,0.7,0.4,1,0.6l14.4,14.5l44.1-44.3c0.6-0.6,1.3-0.9,2.1-0.9s1.5,0.3,2.1,0.9
			l4.1,4.2c0.5,0.5,0.9,1.2,0.9,2s-0.3,1.5-0.8,2l-0.1,0.1L116,159.7c-0.5,0.6-1.2,0.9-2,0.9S112.5,160.3,111.9,159.7L111.9,159.7z"
			/>
	</g>
	<g>
		<path class="st4" d="M181.5,122l-5.4,18.4c-0.9,3.2-0.4,6.6,1.4,9.4l19.3,28.9l-4.2,3.8l-26.1-30.1c-1.9-2.2-2.9-5.1-2.7-8l1.5-25
			L181.5,122z"/>
		<path class="st5" d="M174.4,121.8l2,12.7l3.1,19.4c0.1,0.9,0.2,1.8,0.2,2.7v25l6.4,0.9l3.2-22.1c0.2-1.1,0.2-2.1,0.3-3.2l1.2-37
			L174.4,121.8z"/>
		<path class="st6" d="M177.5,49.4h-0.1h-0.2c-0.3,0-0.6,0-0.8,0.1c-0.3,0-0.5,0-0.8,0h-0.2h-0.1c-3.2,0.1-4.9,2.4-4.9,5.6l0.2,8
			c0.1,2,0.7,4.2,2,5.2l0.2,6.8h0.6l7.5-0.2h0.3h0.3l-0.2-6.8c1.2-1,1.7-3.3,1.7-5.3l-0.2-8C182.6,51.5,180.7,49.3,177.5,49.4z"/>
		<path class="st7" d="M180,182.3l-0.5,4.2c-0.1,1,0,2,0.3,3c0.3,0.8,0.9,1.6,1.3,1.9c0.6,0.4,2.2,0.7,3.2,0.4
			c0.8-0.2,1.1-2.6,1.1-3.5c0-0.4,0-0.8,0-1.1l0.2-4L180,182.3z"/>
		<path class="st7" d="M197.2,179.2l2.9,3.3c0.4,0.5,0.3,1.2-0.2,1.6c0,0-5.4,4.6-7.4,5.8c-0.6,0.3-2.1,0.9-2.6,0.4
			c-0.2-0.1-0.9-0.6-0.8-1.5c0.1-0.3,0.3-0.7,0.6-1.2c0.4-0.6,3.4-4.7,3.4-4.7L197.2,179.2z"/>
		<path class="st8" d="M169,74c-0.6,0.1-7.3,3.7-11,5.8c-1.6,0.9-3.1,2-4.4,3.2c-3.3,3.1-8.2,8-9.4,9.1c-1.2,1.2-0.9,1.8-0.5,2
			l3.7,2.5c0.3,0.1,0.6,0.1,0.9,0c0.7-0.2,6.2-5,8.7-7.2c0.8-0.7,1.7-1.2,2.8-1.5l9.1-2.8L169,74z"/>
		<path class="st9" d="M177.1,74.4c1.8-0.1,2.8-0.4,3.5-0.6c0.7-0.3,1.5-0.4,2.3-0.4h0.9c1.4,0.1,3,0.5,4.1,1.5s1.8,2.5,1.9,4
			l1.9,18.1c0,0.2,0,0.5,0,0.7l-0.2,19.6c0.1,3.1-0.1,3.6-2.8,4.2s-4.4,0.8-9.1,0.9l-2.6,0.1c-4.7,0.1-6.4,0-9.1-0.4
			c-2.6-0.4-2.9-1-3-3.8c0-0.2,0-0.4,0-0.6l0.9-15.8c0-0.2,0-0.5,0-0.7l-1.3-21.6c0-0.8,0.1-1.5,0.4-2.2c0-0.1,0-0.1,0.1-0.2
			c0.5-1.2,1.5-2.2,2.6-2.8c0.1-0.1,0.3-0.1,0.4-0.2c0.7-0.3,1.4-0.4,2.2-0.5l1-0.1c0.8-0.1,1.6,0.1,2.3,0.3
			C174.2,74.2,175.3,74.4,177.1,74.4"/>
		<path class="st6" d="M192.5,110.3l-4.5,4.1c-0.6,0.5-1.3,0.8-2.1,0.8s-1.5-0.4-2-0.9c-0.5-0.6-0.8-1.3-0.7-2.1
			c0-0.8,0.4-1.5,0.9-2l4.5-4.1c0.3-0.2,0.6-0.4,0.9-0.3c0.3,0,0.7,0.2,0.9,0.4l2.1,2.4c0.2,0.3,0.3,0.6,0.3,0.9
			S192.7,110.1,192.5,110.3L192.5,110.3z"/>
		<path class="st9" d="M188.2,75.3l-5.6,10.8l14.5,8.1c0.5,0.2,0.3,0.8,0.1,1c-2.4,2.5-8.7,9.5-8.7,9.5c-0.5,1.1,0.1,1.9,1.3,3.2
			c1.1,1.2,2.3,2.3,3.2,2.4c0.4,0,0.7-0.2,0.9-0.5c0,0,9.1-9.4,11.4-13.1c0.9-1.5,1.2-3.3,0.1-4.3L188.2,75.3z"/>
		<path class="st10" d="M182.7,61.9l-1.5,3.1l-0.1-3l1.5-2.2l-0.1-0.7l-1.7,2.5l-8.3,0.3l-1.9-2.4l-0.1,0.8l1.6,2.1l0.1,2.9
			l-1.7-3.1l0.1,1.2l2.3,4.4c0.4,0.6,0.9,1,1.5,1.3c0.6,0.3,1.2,0.5,1.9,0.5h0.5h0.5c0.8-0.1,1.6-0.4,2.2-0.9s1.1-1.2,1.4-1.9
			l1.8-3.7V61.9z"/>
		<path class="st6" d="M145.4,100.7c-0.3,0.6-0.8,1-1.4,1.2c-0.6,0.2-1.3,0.1-1.9-0.2s-1-0.8-1.2-1.5c-0.2-0.6-0.1-1.3,0.2-1.9
			c0,0,1.7-3.1,2.2-4.3c0.3-0.6,1.2-0.8,1.6-0.7c0.7,0.1,1.9,0.8,2.4,1.3c0.9,0.9,0.5,1.5,0.5,1.5L145.4,100.7z"/>
		<path d="M184.2,49.3c-2.1-2.9-4.9-3.9-4.9-3.9c0.3-0.5,0.6-1,0.7-1.6c0.1-0.6,0-1.2-0.2-1.7l-0.3-1c-0.1-0.4-0.3-0.8-0.6-1.1
			c-0.3-0.3-0.6-0.6-1-0.8s-0.8-0.3-1.2-0.3s-0.9,0-1.3,0.2l-0.9,0.4c-0.8,0.3-1.5,1-1.8,1.8c-0.3,0.8-0.4,1.7-0.1,2.6l0.3,1
			c0.1,0.3,0.2,0.6,0.4,0.8c0,0-2.9,1.2-4.8,4.3c-0.7,1.1-1.3,3.4-1.2,5.1c0.1,2.8,3.5,10.6,3.5,8.2c0.1-3.4,0.3-4.4,0.2-6.1
			c0-0.4,0-0.9,0.1-1.3c0.1-0.4,0.3-0.8,0.6-1.2c0.3-0.3,0.6-0.6,1-0.8s0.8-0.3,1.3-0.4l4.9-0.1c0.4,0,0.9,0.1,1.3,0.3
			c0.4,0.2,0.8,0.4,1.1,0.8c0.3,0.3,0.5,0.7,0.7,1.1c0.2,0.4,0.2,0.9,0.2,1.3c0,1.7,0.4,2.9,0.5,6.1c-0.2,2.5,3.1-5.5,3-8.3
			C185.7,52.6,185,50.4,184.2,49.3z"/>
	</g>
</g>
</svg>
