<?xml version="1.0" encoding="utf-8"?>
<!-- Generator: Adobe Illustrator 25.2.2, SVG Export Plug-In . SVG Version: 6.00 Build 0)  -->
<svg version="1.1" id="Ebene_1" xmlns="http://www.w3.org/2000/svg" xmlns:xlink="http://www.w3.org/1999/xlink" x="0px" y="0px"
	 viewBox="0 0 280 230" style="enable-background:new 0 0 280 230;" xml:space="preserve">
<style type="text/css">
	.st0{fill:#D41030;}
	.st1{fill:#F3F3F8;}
	.st2{fill:#D0D0E4;}
	.st3{fill:#333333;}
	.st4{fill:#303178;}
	.st5{fill:#151678;}
	.st6{fill:#CC9F7A;}
	.st7{fill:#C6C2BC;}
	.st8{fill:#EFEBE3;}
	.st9{fill:#FFFFFF;}
</style>
<g>
	<path class="st0" d="M275,123.3c0,38.4-83,54.7-151.5,54.7C54.9,178,5,151.3,5,113c0-37.2,47.9-91.1,92.4-63.6
		c2.4,1.5,4.6,3.3,6.6,5.4C156.6,109.2,263.1,16.7,275,123.3z"/>
	<g>
		<path class="st1" d="M190.2,139.4h-84.5c-0.3,0-0.6,0.1-0.9,0.2c-0.3,0.1-0.5,0.3-0.7,0.5l-8.9,9.9c-0.1,0.1-0.2,0.2-0.3,0.2
			c-0.1,0-0.2,0-0.4,0c-0.1,0-0.2-0.1-0.3-0.2c-0.1-0.1-0.1-0.2-0.1-0.4v-8.1c0-0.5-0.2-1.1-0.6-1.5c-0.4-0.4-0.9-0.6-1.5-0.6H56.8
			c-0.5,0-1.1-0.2-1.5-0.6c-0.4-0.4-0.6-0.9-0.6-1.5V64.9c0-0.5,0.2-1.1,0.6-1.5c0.4-0.4,0.9-0.6,1.5-0.6h133.4
			c0.6,0,1.1,0.2,1.5,0.6c0.4,0.4,0.6,0.9,0.6,1.5v72.5c0,0.5-0.2,1.1-0.6,1.5C191.3,139.2,190.8,139.4,190.2,139.4z"/>
		<path class="st2" d="M78.9,86.8c-1.3,0.7-2.8,1-4.2,0.9c-3.9,0-7.2-2.9-7.2-7.4c0-4.9,3.4-9.1,8.7-9.1c4.1,0,6.9,2.9,6.9,6.9
			c0,3.6-2,5.7-4.2,5.7c-1,0-1.8-0.6-1.8-2.1H77c-0.8,1.4-1.9,2.1-3.3,2.1s-2.6-1.1-2.6-3c0-0.7,0.1-1.5,0.4-2.2
			c0.3-0.7,0.7-1.3,1.2-1.8s1.1-0.9,1.8-1.2c0.7-0.3,1.4-0.4,2.2-0.4c0.9,0,1.7,0.2,2.5,0.5L78.4,80c-0.4,1.8-0.1,2.6,0.7,2.7
			c1.2,0,2.6-1.6,2.6-4.3c0-3.4-2.1-5.9-5.7-5.9c-3.9,0-7.1,3.1-7.1,7.9c0,4,2.6,6.4,6.1,6.4c1.2,0,2.5-0.3,3.6-0.8L78.9,86.8z
			 M77.6,76.5c-0.4-0.1-0.8-0.2-1.2-0.2c-2.1,0-3.8,2-3.8,4.3c0,1,0.5,1.8,1.6,1.8c1.4,0,2.6-1.8,2.9-3.2L77.6,76.5z"/>
		<path class="st2" d="M179,80.4H90c-0.3,0-0.5,0.2-0.5,0.5V83c0,0.3,0.2,0.5,0.5,0.5h89c0.3,0,0.5-0.2,0.5-0.5v-2.1
			C179.5,80.6,179.3,80.4,179,80.4z"/>
		<path class="st2" d="M179,92.6H68c-0.3,0-0.5,0.2-0.5,0.5v2.1c0,0.3,0.2,0.5,0.5,0.5h111c0.3,0,0.5-0.2,0.5-0.5v-2.1
			C179.5,92.8,179.3,92.6,179,92.6z"/>
		<path class="st2" d="M179,104.8H68c-0.3,0-0.5,0.2-0.5,0.5v2.1c0,0.3,0.2,0.5,0.5,0.5h111c0.3,0,0.5-0.2,0.5-0.5v-2.1
			C179.5,105,179.3,104.8,179,104.8z"/>
		<path class="st2" d="M113.8,116.6H69c-0.9,0-1.6,0.7-1.6,1.6v7.8c0,0.9,0.7,1.6,1.6,1.6h44.8c0.9,0,1.6-0.7,1.6-1.6v-7.8
			C115.4,117.3,114.7,116.6,113.8,116.6z"/>
	</g>
	<g>
		<path class="st3" d="M228.3,182.4l0.4,4.8c0,0.1,0,0.1,0,0.2s-0.1,0.1-0.1,0.2c-0.1,0.1-0.1,0.1-0.2,0.1s-0.1,0-0.2,0l-11.9,0.4
			c-0.1,0-1.3,0.1-1.5-0.8c-0.1-0.7,1.5-1.1,2.5-1.4c1.9-0.5,5.5-1.8,5.5-1.8c0.1,0,0.5-0.6,0.5-0.6L228.3,182.4z"/>
		<path class="st3" d="M194.3,99.2l-5.5,0.3V86l5.5,0.5V99.2z"/>
		<path class="st3" d="M195.5,98.9l-5.5,0.3L188.9,86l1.1-0.4l5.5,0.6V98.9z"/>
		<path class="st4" d="M219.5,124.2l-4.2,28.5c-0.3,1.6-0.4,3.3-0.4,4.8l-0.7,23.6l-6.4,0.7l-2.4-21.2c-0.2-1.5-0.3-3-0.3-4.6
			l-0.2-31.8L219.5,124.2z"/>
		<path class="st5" d="M225.5,150.9l1.2-30.7l-21.9-1.6c0.1,5,0,7.5,0.5,8.5c1.1,2.2,6.2,4.2,6.2,4.2L217,158l5.5,24.9l6.3-1.6
			l-3.1-27.2C225.5,153.1,225.4,151.9,225.5,150.9z"/>
		<path class="st6" d="M214.7,49.8c3.2,0,6.2,1,6.3,4.1V58l1.4,2.2l-1.4,2.4v12.7h-8.1v-5.5c-2.3,0-4.1-1.8-4.1-4.5V55
			C208.8,51.8,211.4,49.8,214.7,49.8z"/>
		<path d="M218.8,62c0.5,0,1-0.2,1.3-0.5c0.4-0.4,0.5-0.8,0.5-1.3s-0.2-1-0.5-1.3c-0.4-0.4-0.8-0.5-1.3-0.5v0.9
			c0.3,0,0.5,0.1,0.7,0.3c0.2,0.2,0.3,0.4,0.3,0.7s-0.1,0.5-0.3,0.7s-0.4,0.3-0.7,0.3V62z"/>
		<path class="st6" d="M195.1,111.1l-2.2,5.6c-0.3,0.7-0.3,1.5,0.1,2.2c0.3,0.7,0.9,1.2,1.6,1.5c0.7,0.3,1.5,0.3,2.2-0.1
			s1.2-0.9,1.5-1.6l2.2-5.6c0.1-0.4,0.1-0.7,0-1c-0.2-0.4-0.4-0.5-0.7-0.7l-3-1.1c-0.4-0.1-0.7-0.1-1,0
			C195.5,110.5,195.3,110.8,195.1,111.1L195.1,111.1z"/>
		<path class="st3" d="M213.8,181.9l0.1,4.8c0,0.1,0,0.1,0,0.2c0,0.1-0.1,0.1-0.1,0.2c-0.1,0.1-0.1,0.1-0.2,0.1s-0.1,0-0.2,0
			l-12.2,0.1c-0.1,0-1.3,0.1-1.5-0.8c-0.1-0.7,1.5-1.1,2.5-1.4c1.9-0.5,5.6-1.7,5.6-1.7c0.1,0,0.2-0.1,0.3-0.2l0.3-0.6L213.8,181.9z
			"/>
		<path class="st7" d="M207.6,77.8c0,0-1.4-2.6-2.2-0.3l-10.8,32c-0.8,1.8,1,2.6,2.6,3.3c1.6,0.8,4.8,2.1,5.7-0.3l10.3-25.2
			L207.6,77.8z"/>
		<path class="st8" d="M207.1,122.2c2.5,0.5,4.1,0.7,8.4,0.6c4.8-0.1,7.4-0.8,7.4-0.8c3-0.6,5.5-0.4,5.5-5.6V78.9
			c0-0.7-0.1-1.4-0.4-2.1c-0.3-0.7-0.7-1.3-1.1-1.8c-0.4-0.5-1.1-1-1.8-1.2c-0.7-0.3-1.4-0.4-2.1-0.4l-2,0.1c0,0-1.1,1.4-4.2,1.3
			c-3.3-0.1-3.8-0.9-3.8-0.9l-2.5,0.2c-0.7,0-1.4,0.2-2.1,0.4c-0.7,0.2-1.2,0.7-1.8,1.2s-0.9,1.1-1.1,1.8c-0.3,0.7-0.4,1.4-0.4,2.1
			l-0.6,38.4C204.4,121.1,204.6,121.6,207.1,122.2z"/>
		<path class="st6" d="M196.2,95.6l-6-0.9c-0.8-0.1-1.5,0.1-2.1,0.5s-1.1,1.1-1.1,1.9c-0.1,0.8,0.1,1.5,0.5,2.1s1.1,1.1,1.9,1.1
			l6,0.9c0.4,0.1,0.7,0,1-0.3c0.3-0.2,0.4-0.5,0.5-0.9l0.4-3.2c0.1-0.4,0-0.7-0.3-1C196.8,95.7,196.5,95.6,196.2,95.6L196.2,95.6z"
			/>
		<path class="st8" d="M228.3,85.9l-8.2-2.6L214,94.1c-0.2,0.3-0.4,0.5-0.7,0.7c-0.3,0.2-0.6,0.3-1,0.3l-15.2-0.3
			c-1.1,0-1.4,1.3-1.6,3c-0.3,2-0.4,4.1,0.8,4.4l20.4,2.6c0.8,0.1,1.5-0.1,2.2-0.4c0.7-0.4,1.2-1,1.5-1.6L228.3,85.9z"/>
		<path class="st9" d="M214.2,62.2l4.1-5.3l0.7,0.5l-4.3,5.5c0.2,2,1.1,2.9,1.8,3.3l4.2-4.5l0.6,0.6l-4.4,4.7c-1.4,3.3-2.8,3-4.1,3
			c-2.6,0-4.1-1.8-4.1-4.5v-3.3H214.2z"/>
		<path d="M226.5,46.2l-0.7-0.9c-0.6-0.7-1.4-1.2-2.4-1.3c-0.9-0.1-1.8,0.2-2.6,0.7l-0.8,0.7c-0.4,0.4-0.8,0.9-1.1,1.4
			s-0.3,1.1-0.3,1.8c-0.4-0.1-0.6-0.1-1-0.1c-7.6,0.3-8.5,2.6-9.2,3.8c-0.8,1.1-1,5,0.3,6.6v-2.5h9.1v1.2c0,0,3.4-1.1,3.4,2.5
			c0,1.7-0.9,1.4-1.2,2.3c-0.3,0.9,0,3.6,1.7,4c2.6,0.5,3.5-5.5,3.5-8.5c0-3.4-1.7-5.5-1.7-5.5c0.6-0.1,1.1-0.4,1.6-0.7L226,51
			c0.7-0.6,1.2-1.4,1.3-2.4C227.3,47.9,227,46.9,226.5,46.2z"/>
	</g>
</g>
</svg>
